HIERARCHY
ROOT Hips
{
    OFFSET 0.000000 0.000000 0.000000
    CHANNELS 6 Xposition Yposition Zposition Zrotation Yrotation Xrotation
    JOINT Chest
    {
        OFFSET 0.000000 1.634758 -0.000000
        CHANNELS 3 Zrotation Yrotation Xrotation
        JOINT Chest2
        {
            OFFSET 0.000000 2.197341 0.000000
            CHANNELS 3 Zrotation Yrotation Xrotation
            JOINT Neck
            {
                OFFSET 0.000000 0.961544 0.000000
                CHANNELS 3 Zrotation Yrotation Xrotation
                JOINT Head
                {
                    OFFSET 0.000000 0.632542 -0.032565
                    CHANNELS 3 Zrotation Yrotation Xrotation
                    End Site
                    {
                        OFFSET -0.000001 0.439502 2.922845
                    }
                }
            }
            JOINT LeftCollar
            {
                OFFSET 0.167536 0.778237 -0.168280
                CHANNELS 3 Zrotation Yrotation Xrotation
                JOINT LeftShoulder
                {
                    OFFSET 0.831514 -0.002900 0.006458
                    CHANNELS 3 Zrotation Yrotation Xrotation
                    JOINT LeftElbow
                    {
                        OFFSET 2.272872 -0.026639 0.059314
                        CHANNELS 3 Zrotation Yrotation Xrotation
                        JOINT LeftWrist
                        {
                            OFFSET 2.081982 -0.024402 0.054333
                            CHANNELS 3 Zrotation Yrotation Xrotation
                            JOINT LeftHandThumb1
                            {
                                OFFSET 0.218903 -0.128645 0.283837
                                CHANNELS 3 Zrotation Yrotation Xrotation
                                JOINT LeftHandThumb2
                                {
                                    OFFSET 0.137157 -0.025101 0.077902
                                    CHANNELS 3 Zrotation Yrotation Xrotation
                                    JOINT LeftHandThumb3
                                    {
                                        OFFSET 0.124714 -0.021351 0.132400
                                        CHANNELS 3 Zrotation Yrotation Xrotation
                                        End Site
                                        {
                                            OFFSET 0.029349 0.109462 0.242885
                                        }
                                    }
                                }
                            }
                            JOINT LeftHandFore1
                            {
                                OFFSET 0.767340 -0.016076 0.196678
                                CHANNELS 3 Zrotation Yrotation Xrotation
                                JOINT LeftHandFore2
                                {
                                    OFFSET 0.216526 -0.002420 0.010306
                                    CHANNELS 3 Zrotation Yrotation Xrotation
                                    JOINT LeftHandFore3
                                    {
                                        OFFSET 0.123703 0.037946 0.004548
                                        CHANNELS 3 Zrotation Yrotation Xrotation
                                        End Site
                                        {
                                            OFFSET 0.163691 0.102821 0.000195
                                        }
                                    }
                                }
                            }
                            JOINT LeftHandMiddle1
                            {
                                OFFSET 0.709887 -0.008320 0.018526
                                CHANNELS 3 Zrotation Yrotation Xrotation
                                JOINT LeftHandMiddle2
                                {
                                    OFFSET 0.174582 -0.171847 0.007303
                                    CHANNELS 3 Zrotation Yrotation Xrotation
                                    JOINT LeftHandMiddle3
                                    {
                                        OFFSET 0.056423 -0.134854 0.003732
                                        CHANNELS 3 Zrotation Yrotation Xrotation
                                        End Site
                                        {
                                            OFFSET -0.052393 -0.229961 0.001711
                                        }
                                    }
                                }
                            }
                            JOINT LeftHandRing1
                            {
                                OFFSET 0.743817 -0.005823 -0.153668
                                CHANNELS 3 Zrotation Yrotation Xrotation
                                JOINT LeftHandRing2
                                {
                                    OFFSET 0.235599 -0.262789 -0.012995
                                    CHANNELS 3 Zrotation Yrotation Xrotation
                                    JOINT LeftHandRing3
                                    {
                                        OFFSET -0.001519 -0.136382 -0.001788
                                        CHANNELS 3 Zrotation Yrotation Xrotation
                                        End Site
                                        {
                                            OFFSET -0.079854 -0.089649 -0.002472
                                        }
                                    }
                                }
                            }
                            JOINT LeftHandLittle1
                            {
                                OFFSET 0.689408 -0.053302 -0.308304
                                CHANNELS 3 Zrotation Yrotation Xrotation
                                JOINT LeftHandLittle2
                                {
                                    OFFSET 0.192983 0.019922 -0.020365
                                    CHANNELS 3 Zrotation Yrotation Xrotation
                                    JOINT LeftHandLittle3
                                    {
                                        OFFSET 0.115606 0.030922 -0.013242
                                        CHANNELS 3 Zrotation Yrotation Xrotation
                                        End Site
                                        {
                                            OFFSET 0.157197 0.106502 -0.015336
                                        }
                                    }
                                }
                            }
                        }
                    }
                }
            }
            JOINT RightCollar
            {
                OFFSET -0.167536 0.778237 -0.168280
                CHANNELS 3 Zrotation Yrotation Xrotation
                JOINT RightShoulder
                {
                    OFFSET -0.831514 -0.002900 0.006457
                    CHANNELS 3 Zrotation Yrotation Xrotation
                    JOINT RightElbow
                    {
                        OFFSET -2.272872 -0.026639 0.059313
                        CHANNELS 3 Zrotation Yrotation Xrotation
                        JOINT RightWrist
                        {
                            OFFSET -2.081982 -0.024402 0.054331
                            CHANNELS 3 Zrotation Yrotation Xrotation
                            JOINT RightHandThumb1
                            {
                                OFFSET -0.218911 -0.128571 0.283837
                                CHANNELS 3 Zrotation Yrotation Xrotation
                                JOINT RightHandThumb2
                                {
                                    OFFSET -0.137157 -0.025101 0.077902
                                    CHANNELS 3 Zrotation Yrotation Xrotation
                                    JOINT RightHandThumb3
                                    {
                                        OFFSET -0.149124 -0.106262 -0.003101
                                        CHANNELS 3 Zrotation Yrotation Xrotation
                                        End Site
                                        {
                                            OFFSET -0.223897 -0.132385 0.064656
                                        }
                                    }
                                }
                            }
                            JOINT RightHandFore1
                            {
                                OFFSET -0.767344 -0.015991 0.196679
                                CHANNELS 3 Zrotation Yrotation Xrotation
                                JOINT RightHandFore2
                                {
                                    OFFSET -0.089917 -0.196879 0.012250
                                    CHANNELS 3 Zrotation Yrotation Xrotation
                                    JOINT RightHandFore3
                                    {
                                        OFFSET 0.028427 -0.126305 0.001027
                                        CHANNELS 3 Zrotation Yrotation Xrotation
                                        End Site
                                        {
                                            OFFSET 0.118080 -0.153043 -0.001353
                                        }
                                    }
                                }
                            }
                            JOINT RightHandMiddle1
                            {
                                OFFSET -0.709887 -0.008302 0.018525
                                CHANNELS 3 Zrotation Yrotation Xrotation
                                JOINT RightHandMiddle2
                                {
                                    OFFSET -0.156536 -0.188440 0.006963
                                    CHANNELS 3 Zrotation Yrotation Xrotation
                                    JOINT RightHandMiddle3
                                    {
                                        OFFSET 0.012044 -0.145718 -0.002363
                                        CHANNELS 3 Zrotation Yrotation Xrotation
                                        End Site
                                        {
                                            OFFSET 0.169484 -0.163728 -0.009933
                                        }
                                    }
                                }
                            }
                            JOINT RightHandRing1
                            {
                                OFFSET -0.743819 -0.005785 -0.153669
                                CHANNELS 3 Zrotation Yrotation Xrotation
                                JOINT RightHandRing2
                                {
                                    OFFSET -0.213973 -0.280618 -0.014227
                                    CHANNELS 3 Zrotation Yrotation Xrotation
                                    JOINT RightHandRing3
                                    {
                                        OFFSET 0.032259 -0.131516 -0.016368
                                        CHANNELS 3 Zrotation Yrotation Xrotation
                                        End Site
                                        {
                                            OFFSET 0.116450 -0.028674 -0.006111
                                        }
                                    }
                                }
                            }
                            JOINT RightHandLittle1
                            {
                                OFFSET -0.689403 -0.053298 -0.308303
                                CHANNELS 3 Zrotation Yrotation Xrotation
                                JOINT RightHandLittle2
                                {
                                    OFFSET -0.130629 -0.144134 -0.014728
                                    CHANNELS 3 Zrotation Yrotation Xrotation
                                    JOINT RightHandLittle3
                                    {
                                        OFFSET -0.010253 -0.119717 -0.007640
                                        CHANNELS 3 Zrotation Yrotation Xrotation
                                        End Site
                                        {
                                            OFFSET 0.073248 -0.175348 -0.013274
                                        }
                                    }
                                }
                            }
                        }
                    }
                }
            }
        }
    }
    JOINT LeftHip
    {
        OFFSET 0.685143 0.673822 -0.044491
        CHANNELS 3 Zrotation Yrotation Xrotation
        JOINT LeftKnee
        {
            OFFSET 0.085364 -3.750208 0.017676
            CHANNELS 3 Zrotation Yrotation Xrotation
            JOINT LeftAnkle
            {
                OFFSET 0.094583 -4.155206 0.019585
                CHANNELS 3 Zrotation Yrotation Xrotation
                JOINT LeftToe
                {
                    OFFSET -0.000000 -0.395925 0.621478
                    CHANNELS 3 Zrotation Yrotation Xrotation
                    End Site
                    {
                        OFFSET -0.000000 -0.077878 0.321152
                    }
                }
            }
        }
    }
    JOINT RightHip
    {
        OFFSET -0.685143 0.673822 -0.044492
        CHANNELS 3 Zrotation Yrotation Xrotation
        JOINT RightKnee
        {
            OFFSET -0.085364 -3.750208 0.017677
            CHANNELS 3 Zrotation Yrotation Xrotation
            JOINT RightAnkle
            {
                OFFSET -0.094583 -4.155206 0.019585
                CHANNELS 3 Zrotation Yrotation Xrotation
                JOINT RightToe
                {
                    OFFSET -0.000000 -0.395925 0.621478
                    CHANNELS 3 Zrotation Yrotation Xrotation
                    End Site
                    {
                        OFFSET -0.000000 -0.077878 0.321152
                    }
                }
            }
        }
    }
}
MOTION
Frames: 7
Frame Time: 0.033333
0.974785 8.335986 0.025733 -0.000015 84.889008 0.000000 5.012322 -13.604648 -0.897420 -1.136123 2.428251 5.392688 18.990788 -2.622904 -2.738756 0.042961 -0.834426 -1.571883 4.197195 -6.827424 -0.185419 -0.523386 -9.839187 -41.939491 178.354858 -46.623947 -179.298386 21.922796 15.756621 -33.156555 -0.000003 0.000003 0.000001 -0.000009 -0.000001 -0.000001 0.000002 0.000002 -0.000001 -0.000003 0.000000 -0.000000 0.000002 -0.000000 0.000000 -0.000003 -0.000000 -0.000000 -0.000002 0.000001 0.000000 -0.000007 0.000001 0.000000 0.000009 -0.000001 0.000000 0.000002 0.000000 0.000000 -0.000003 -0.000000 -0.000000 -0.000003 0.000001 0.000000 -0.000003 0.000000 0.000000 0.000002 -0.000000 0.000000 0.000000 0.000000 -0.000001 -9.763535 -5.133613 0.402234 -34.665012 -9.904303 0.576762 -0.000166 1.613133 -0.018908 8.598044 -30.712622 -95.674194 -0.000003 -0.000005 0.000007 0.000002 0.000001 -0.000007 0.000005 0.000001 0.000005 -0.000007 -0.000001 0.000003 0.000007 -0.000000 0.000000 0.000007 -0.000001 0.000002 -0.000002 -0.000001 0.000005 0.000005 0.000003 0.000000 -0.000005 -0.000000 -0.000003 0.000002 0.000002 0.000002 -0.000003 -0.000002 -0.000003 0.000003 0.000001 0.000002 0.000000 -0.000002 0.000000 0.000000 0.000002 0.000003 0.000002 0.000003 0.000000 -0.249716 -0.273656 -12.112149 0.026994 0.263948 11.676498 -1.895220 -4.538091 -17.983644 0.000000 0.000002 0.000001 4.223460 -0.040257 -1.656155 -0.025215 -0.255242 11.286175 2.606029 5.625185 -13.292577 0.070738 0.367551 -2.736788
0.991748 8.336134 0.023944 -2.678244 88.446922 -3.243107 5.040937 -13.622853 -0.619912 -1.164223 2.434599 5.319882 18.197603 -2.308351 -2.415518 0.010619 -0.206418 -1.048004 4.173518 -7.058824 -0.185705 -0.903353 -11.525101 -41.004547 178.336441 -47.623085 -179.273193 22.059998 15.630661 -31.726635 -0.000009 0.000007 0.000006 0.000002 0.000002 0.000000 0.000000 0.000000 -0.000002 -0.000002 0.000003 -0.000001 0.000003 -0.000000 0.000000 -0.000007 -0.000000 0.000000 -0.000005 0.000004 0.000002 0.000007 0.000000 -0.000001 0.000003 0.000001 -0.000001 -0.000010 0.000003 -0.000001 -0.000003 -0.000002 0.000000 0.000002 0.000000 0.000001 0.000000 0.000006 -0.000001 0.000000 0.000000 0.000000 0.000003 0.000000 0.000000 -9.780192 -5.444613 0.405003 -35.245361 -17.244617 0.819703 -0.021690 14.675874 -0.175723 8.588482 -30.719084 -95.675064 0.000010 -0.000002 0.000002 0.000000 -0.000003 -0.000002 0.000007 0.000003 0.000000 0.000015 0.000003 -0.000019 0.000000 0.000002 0.000005 0.000005 0.000005 -0.000002 0.000017 -0.000002 -0.000010 -0.000007 0.000005 -0.000002 -0.000002 -0.000003 -0.000002 0.000007 0.000009 -0.000015 0.000002 -0.000007 -0.000002 0.000003 0.000007 0.000003 0.000019 0.000003 -0.000020 0.000002 -0.000000 0.000007 0.000000 -0.000002 0.000002 -0.679086 0.694315 -11.880498 0.025476 0.256489 11.342050 2.035604 6.197486 -17.144695 0.000000 0.000001 0.000001 4.603882 0.968650 -0.638844 -0.022941 -0.243566 10.763570 1.222557 6.867904 -12.402123 0.078142 0.449555 -3.769830
0.966579 8.336316 0.000878 175.730759 85.677452 176.129242 4.940899 -13.686655 -1.564741 -1.277955 2.406732 3.430105 16.358456 -2.877852 -1.813470 0.063098 -1.225388 0.011488 3.966845 -7.414852 -0.179325 -3.297320 -13.030404 -38.673565 178.309662 -48.987499 -179.237183 22.423882 15.265702 -28.408157 -0.000010 0.000002 0.000014 -0.000003 0.000003 0.000002 0.000005 0.000002 -0.000003 -0.000010 -0.000005 0.000000 0.000000 0.000001 0.000000 -0.000005 0.000001 0.000001 -0.000024 -0.000009 -0.000003 0.000000 0.000001 -0.000001 0.000000 -0.000001 -0.000001 -0.000010 -0.000007 -0.000003 0.000003 0.000003 -0.000001 -0.000005 -0.000001 -0.000002 -0.000003 -0.000007 -0.000001 -0.000003 -0.000002 0.000001 0.000002 0.000001 0.000000 -9.878758 -5.305863 0.410033 -36.313301 -21.690027 0.912245 -0.066230 24.750204 -0.309168 8.560184 -30.738171 -95.677643 -0.000003 -0.000010 -0.000010 -0.000002 -0.000002 -0.000002 0.000009 0.000005 0.000005 -0.000007 -0.000003 -0.000019 -0.000002 0.000002 0.000002 0.000005 -0.000003 0.000003 0.000003 -0.000002 -0.000022 0.000000 -0.000000 0.000002 -0.000005 0.000002 0.000002 -0.000002 -0.000003 -0.000017 0.000000 0.000003 -0.000002 -0.000002 -0.000002 0.000003 0.000007 -0.000003 -0.000022 0.000000 -0.000002 -0.000002 -0.000003 -0.000000 -0.000002 -2.318559 3.092087 -12.679803 0.015403 0.199820 8.813254 4.867203 8.282260 -14.518482 0.000000 -0.000000 0.000002 4.592852 3.617164 -1.779733 -0.024833 -0.253324 11.200192 -0.423126 3.469254 -15.704852 0.000000 -0.000000 0.000007
1.020652 8.337124 -0.027658 177.401596 81.071365 176.016388 4.439100 -13.825664 -0.180086 -1.582770 2.484494 3.446295 13.960166 -3.157824 -1.540138 0.082743 -1.606901 0.352244 3.835359 -7.609236 -0.178440 -4.916750 -11.605126 -37.402245 178.285309 -50.144100 -179.205093 22.942345 14.684568 -24.660624 0.000000 0.000006 -0.000012 -0.000010 0.000003 -0.000002 0.000002 -0.000001 0.000000 0.000014 -0.000004 -0.000003 0.000000 -0.000002 0.000000 -0.000009 0.000001 0.000003 -0.000003 -0.000003 0.000000 0.000000 -0.000003 -0.000002 0.000002 -0.000001 0.000002 -0.000005 -0.000004 -0.000003 0.000007 -0.000004 0.000003 0.000003 0.000003 -0.000003 0.000009 -0.000003 -0.000007 -0.000002 0.000005 0.000002 0.000003 -0.000001 0.000000 -9.832065 -4.865627 0.416314 -36.443668 -22.703688 0.754585 -0.103862 30.268970 -0.391296 8.513757 -30.769402 -95.681786 0.000000 -0.000010 0.000012 0.000000 -0.000005 -0.000001 0.000005 0.000003 0.000006 0.000007 0.000014 0.000007 0.000002 -0.000002 0.000003 0.000003 0.000003 -0.000001 0.000009 0.000010 0.000014 0.000002 -0.000000 0.000001 -0.000005 -0.000002 -0.000003 0.000003 0.000014 0.000007 0.000000 0.000002 -0.000001 -0.000005 -0.000000 0.000003 0.000009 0.000010 0.000001 0.000007 -0.000003 0.000000 -0.000002 0.000002 0.000003 -3.597663 6.330498 -11.642333 0.015145 0.198154 8.739156 6.187006 10.156366 -13.246120 0.000003 0.000005 0.000000 5.065905 7.038595 0.377065 -0.024778 -0.253044 11.187655 -1.166777 0.240563 -13.376451 0.044341 0.246250 -3.422847
1.032365 8.337885 -0.063779 177.371307 76.522446 175.710114 4.013778 -13.938373 0.105083 -1.756503 2.482927 2.181628 11.617368 -3.367318 -0.929934 0.097958 -1.901895 1.355883 3.589300 -7.818645 -0.170701 -7.239351 -10.551779 -35.512604 178.260147 -51.264065 -179.172501 23.552725 13.919229 -21.618431 -0.000002 0.000012 0.000007 -0.000003 -0.000002 -0.000003 -0.000002 -0.000001 -0.000003 0.000010 0.000005 0.000000 0.000000 -0.000001 0.000000 -0.000010 -0.000004 0.000000 0.000000 0.000003 -0.000002 0.000005 0.000002 0.000003 -0.000003 0.000001 -0.000007 0.000005 0.000006 -0.000003 0.000002 0.000002 0.000003 -0.000005 -0.000006 -0.000003 0.000012 0.000001 0.000000 0.000000 -0.000001 -0.000002 0.000003 -0.000002 -0.000003 -9.779787 -4.280573 0.416845 -36.029209 -20.683115 0.480964 -0.105396 30.464897 -0.394370 8.449788 -30.812332 -95.687363 0.000009 0.000005 -0.000002 -0.000003 0.000005 -0.000003 0.000006 0.000003 0.000006 0.000017 0.000012 -0.000013 0.000002 -0.000000 -0.000002 0.000003 -0.000003 0.000002 0.000012 0.000007 -0.000009 -0.000006 -0.000002 -0.000001 0.000000 0.000009 -0.000001 0.000020 0.000017 -0.000013 -0.000003 -0.000005 0.000000 -0.000002 0.000007 0.000003 0.000015 0.000009 -0.000016 -0.000001 0.000003 -0.000003 0.000002 -0.000000 0.000000 -5.305386 9.616892 -11.924960 0.013454 0.186816 8.235552 6.755702 11.571270 -11.261444 0.000001 0.000003 -0.000002 5.245749 10.658632 0.620552 -0.027109 -0.264553 11.703602 -2.326702 -2.794262 -14.861517 0.014639 0.068015 -1.484342
1.047672 8.338987 -0.107276 177.311981 72.028305 175.258743 3.463069 -14.072396 0.527313 -1.950027 2.485846 1.026272 9.779384 -3.510384 -0.368556 0.106372 -2.065214 2.304709 3.356661 -8.043722 -0.163713 -8.705220 -10.647436 -33.550953 178.244644 -51.920162 -179.152664 24.244511 13.004079 -18.663109 -0.000002 0.000009 0.000002 -0.000005 -0.000003 -0.000002 0.000005 0.000004 0.000000 0.000009 0.000002 -0.000002 0.000002 -0.000000 -0.000002 -0.000009 -0.000002 0.000002 -0.000002 -0.000000 0.000000 0.000000 0.000001 -0.000002 -0.000002 0.000001 0.000003 -0.000009 -0.000001 -0.000002 0.000003 -0.000003 -0.000003 -0.000007 -0.000001 0.000002 0.000009 -0.000001 -0.000005 0.000003 0.000001 0.000003 0.000005 0.000003 0.000002 -9.655871 -4.067122 0.416844 -35.150906 -18.339134 0.337379 -0.083048 27.414549 -0.347794 8.368827 -30.866482 -95.694267 -0.000008 -0.000002 -0.000024 -0.000002 -0.000002 -0.000007 0.000004 0.000010 0.000005 -0.000003 0.000007 -0.000026 0.000006 0.000002 -0.000003 0.000002 -0.000002 0.000004 0.000001 -0.000003 -0.000026 -0.000003 0.000003 0.000003 -0.000006 -0.000003 0.000001 -0.000008 0.000007 -0.000026 0.000003 0.000003 0.000002 0.000001 -0.000003 0.000000 -0.000008 0.000007 -0.000030 0.000003 -0.000002 0.000001 -0.000001 -0.000002 0.000000 -6.936306 12.315296 -12.513986 0.016857 0.208980 9.220694 6.832926 11.887669 -9.908840 -0.000000 -0.000002 -0.000000 5.354000 13.701316 1.018936 -0.029840 -0.277413 12.281137 -2.860691 -5.603640 -14.516078 0.013478 0.067230 -2.293598
1.064831 8.340463 -0.157444 177.224915 67.586563 174.710678 2.799125 -14.226939 1.017659 -2.158777 2.497342 0.096869 7.935831 -3.638351 0.132007 0.113135 -2.196359 3.118147 3.155483 -8.237099 -0.158032 -9.073339 -12.333740 -31.486845 178.256287 -51.429905 -179.167526 24.972239 11.974562 -16.398008 -0.000020 -0.000002 -0.000007 0.000002 -0.000000 -0.000002 0.000003 0.000009 -0.000002 -0.000005 -0.000014 -0.000003 0.000005 -0.000000 0.000003 -0.000005 0.000002 0.000000 -0.000031 -0.000010 0.000005 -0.000002 -0.000000 0.000002 -0.000002 0.000002 0.000003 -0.000024 -0.000009 -0.000002 0.000003 -0.000003 -0.000002 -0.000002 -0.000005 -0.000002 0.000009 -0.000009 -0.000003 -0.000002 -0.000005 -0.000003 0.000000 -0.000000 -0.000002 -9.485660 -3.932725 0.416115 -34.121548 -15.975567 0.229371 -0.060741 23.791826 -0.295684 8.271447 -30.931393 -95.702286 -0.000004 -0.000010 -0.000018 0.000001 0.000003 -0.000002 0.000007 0.000003 0.000006 -0.000005 -0.000002 -0.000025 0.000005 0.000002 0.000000 0.000004 0.000002 0.000002 0.000004 0.000002 -0.000025 -0.000005 -0.000007 -0.000001 -0.000003 0.000003 0.000001 -0.000002 0.000007 -0.000029 -0.000002 -0.000005 0.000003 -0.000003 0.000003 0.000003 -0.000005 0.000002 -0.000029 0.000002 0.000002 0.000001 0.000000 0.000002 0.000002 -8.349647 13.993723 -13.164332 0.024382 0.250976 11.095169 6.318148 12.647724 -10.476710 0.000002 0.000005 -0.000004 5.336707 15.702910 1.547902 -0.032660 -0.290069 12.850610 -3.860730 -7.897532 -16.889645 -0.000001 -0.000003 0.000002
